<svg width="61" height="61" viewBox="0 0 61 61" fill="none" xmlns="http://www.w3.org/2000/svg">
<path fill-rule="evenodd" clip-rule="evenodd" d="M0.0585938 30.9561C0.0585938 14.3876 13.4901 0.956055 30.0586 0.956055C46.6271 0.956055 60.0586 14.3876 60.0586 30.9561C60.0586 47.5246 46.6271 60.9561 30.0586 60.9561C13.4901 60.9561 0.0585938 47.5246 0.0585938 30.9561ZM34.5065 24.2934H42.9806V21.8656H34.5065V24.2934ZM42.2336 26.3314C41.2138 25.8804 40.0681 25.6539 38.7943 25.6539C36.6513 25.6539 34.911 26.3241 33.5657 27.6549C32.2242 28.9894 31.5525 30.9068 31.5525 33.4071C31.5525 36.0726 32.2938 37.9992 33.7858 39.1816C35.2703 40.3658 36.9881 40.9561 38.9355 40.9561C41.293 40.9561 43.1273 40.2544 44.4368 38.8531C45.276 37.9696 45.7501 37.0989 45.8536 36.2452H41.9496C41.7237 36.6683 41.4603 36.9988 41.1612 37.2382C40.6175 37.6781 39.9081 37.8989 39.0408 37.8989C38.2167 37.8989 37.515 37.7171 36.9317 37.3552C35.9683 36.7742 35.4641 35.7588 35.4001 34.3129H46.055C46.0718 33.0674 46.0305 32.1097 45.927 31.4488C45.7501 30.3184 45.3626 29.3236 44.7586 28.4661C44.0963 27.4934 43.2553 26.7807 42.2336 26.3314ZM28.7397 23.0349C27.7331 21.6837 26.0266 20.9913 23.6146 20.9561H14.0586V40.4642H22.9692C23.974 40.4642 24.9033 40.3788 25.7632 40.2024C26.6231 40.0243 27.3662 39.6994 27.9966 39.2224C28.5572 38.8067 29.0238 38.2943 29.3963 37.6874C29.9852 36.7704 30.2787 35.7328 30.2787 34.5764C30.2787 33.4553 30.021 32.5013 29.5092 31.7181C28.9918 30.9328 28.2317 30.3593 27.2232 29.9956C27.8875 29.6614 28.3897 29.2902 28.7322 28.8856C29.3437 28.1617 29.6466 27.2021 29.6466 26.0122C29.6466 24.8558 29.3437 23.8647 28.7397 23.0349Z" fill="white"/>
</svg>
