<svg width="61" height="61" viewBox="0 0 61 61" fill="none" xmlns="http://www.w3.org/2000/svg">
<path fill-rule="evenodd" clip-rule="evenodd" d="M0.0585938 30.9561C0.0585938 14.3876 13.4901 0.956055 30.0586 0.956055C46.6271 0.956055 60.0586 14.3876 60.0586 30.9561C60.0586 47.5246 46.6271 60.9561 30.0586 60.9561C13.4901 60.9561 0.0585938 47.5246 0.0585938 30.9561ZM46.0586 30.9339C46.0586 29.8511 45.9485 28.7682 45.7321 27.7172C45.5211 26.6889 45.2086 25.6778 44.7992 24.7143C44.3992 23.7658 43.9031 22.8514 43.3235 21.9994C42.7523 21.1522 42.0945 20.3594 41.3717 19.6347C40.6476 18.9138 39.8506 18.2593 39.0045 17.6867C38.1497 17.1086 37.2348 16.6131 36.2863 16.2106C35.3198 15.8026 34.3081 15.4897 33.2807 15.2806C32.226 15.0653 31.1416 14.9561 30.058 14.9561C28.9735 14.9561 27.8891 15.0653 26.836 15.2806C25.807 15.4897 24.7952 15.8024 23.8295 16.2106C22.8811 16.6132 21.9653 17.1086 21.1106 17.6867C20.2645 18.2593 19.4676 18.9138 18.7448 19.6347C18.0215 20.3594 17.3636 21.1522 16.7916 21.9994C16.2151 22.8514 15.7181 23.7657 15.3166 24.7143C14.9071 25.6778 14.5938 26.6889 14.3821 27.7172C14.168 28.7682 14.0586 29.8511 14.0586 30.9339C14.0586 32.0159 14.168 33.0964 14.3821 34.1498C14.5938 35.1779 14.9071 36.1876 15.3165 37.1526C15.7181 38.1004 16.215 39.0141 16.7916 39.8659C17.3635 40.7126 18.0213 41.5067 18.7448 42.2307C19.4675 42.9516 20.2645 43.6077 21.1106 44.1811C21.9652 44.7568 22.881 45.2522 23.8295 45.6541C24.7951 46.0613 25.807 46.3733 26.8358 46.5839C27.889 46.8009 28.9735 46.9117 30.0578 46.9117C31.1415 46.9117 32.226 46.8009 33.2806 46.5839C34.308 46.3733 35.3198 46.0613 36.2863 45.6541C37.2348 45.2522 38.1497 44.7568 39.0043 44.1811C39.8505 43.6076 40.6475 42.9516 41.3717 42.2307C42.0943 41.5067 42.7522 40.7126 43.3233 39.8659C43.9031 39.0141 44.3992 38.1006 44.7992 37.1526C45.2086 36.1876 45.5211 35.1781 45.7321 34.1498C45.9485 33.0964 46.0586 32.0159 46.0586 30.9339Z" fill="white"/>
<path fill-rule="evenodd" clip-rule="evenodd" d="M32.9966 27.6655C38.3914 25.4654 40.5829 22.3034 40.6088 22.2668C42.5259 24.5909 43.6847 27.5594 43.7159 30.7939C43.5182 30.7534 38.8938 29.761 34.1998 30.3509C34.1037 30.1169 34.0053 29.8828 33.9044 29.644C33.6208 28.9785 33.3138 28.3163 32.9966 27.6655ZM37.6922 42.25C37.5531 41.4276 36.8248 37.4223 35.0326 32.5041C39.4429 31.798 43.2658 33.0065 43.5471 33.097C42.9392 36.8996 40.7602 40.1825 37.6922 42.25ZM32.4723 33.136C34.3951 38.126 35.1888 42.3045 35.3912 43.4966C33.7513 44.1933 31.9488 44.578 30.0566 44.578C26.8877 44.578 23.9782 43.4911 21.6585 41.6898C21.687 41.628 24.3197 35.9721 32.3817 33.1658C32.4114 33.1549 32.4419 33.1461 32.4723 33.136ZM39.0806 20.694C39.0469 20.7439 37.1007 23.7023 31.9449 25.6324C29.6082 21.3478 27.0416 17.9479 26.837 17.6733C27.869 17.4251 28.9463 17.291 30.0566 17.291C33.5162 17.291 36.6748 18.5758 39.0806 20.694ZM30.4323 28.5565C30.8238 29.3226 31.1981 30.0998 31.5411 30.8751C31.3613 30.9266 31.1801 30.9798 31.0019 31.039C23.6282 33.42 19.8888 40.0444 19.8936 40.0515C17.7168 37.6353 16.3926 34.4396 16.3926 30.9345C16.3926 30.7878 16.3996 30.6458 16.4036 30.4991C16.6457 30.5085 23.3968 30.6598 30.4323 28.5565ZM24.2266 18.593C24.4087 18.8356 26.9353 22.2598 29.3003 26.4555C22.7398 28.1961 17.0457 28.1243 16.6856 28.1211C17.5723 23.8958 20.4162 20.3898 24.2266 18.593Z" fill="white"/>
</svg>
