<svg width="170" height="69" viewBox="0 0 170 69" fill="none" xmlns="http://www.w3.org/2000/svg">
<circle cx="60.0586" cy="5.96387" r="5" fill="#F54B55"/>
<circle cx="30.0586" cy="38.8223" r="30" fill="#F54B55"/>
<rect x="30.3301" y="55.1201" width="23.4332" height="22.6649" rx="2.5" transform="rotate(-135 30.3301 55.1201)" fill="#F2F2F2"/>
<path d="M90.541 49.8467V55.1201H75.3848V49.8467H90.541ZM77.8262 26.6826V55.1201H70.9707V26.6826H77.8262ZM88.5879 37.9717V43.0693H75.3848V37.9717H88.5879ZM90.5996 26.6826V31.9756H75.3848V26.6826H90.5996ZM100.15 50.6084L104.311 33.9873H111.244L104.33 55.1201H100.229L100.15 50.6084ZM97.6895 33.9873L101.791 50.6084L101.752 55.1201H97.6309L90.7363 33.9873H97.6895ZM123.158 55.5107C121.439 55.5107 119.903 55.2438 118.549 54.71C117.195 54.1631 116.049 53.4144 115.111 52.4639C114.187 51.5133 113.477 50.4196 112.982 49.1826C112.501 47.9456 112.26 46.637 112.26 45.2568V44.5146C112.26 42.9652 112.475 41.5329 112.904 40.2178C113.334 38.8896 113.972 37.7308 114.818 36.7412C115.665 35.7516 116.726 34.9834 118.002 34.4365C119.278 33.8766 120.762 33.5967 122.455 33.5967C123.952 33.5967 125.294 33.8376 126.479 34.3193C127.663 34.8011 128.666 35.4912 129.486 36.3896C130.32 37.2881 130.951 38.3753 131.381 39.6514C131.824 40.9274 132.045 42.3597 132.045 43.9482V46.624H114.779V42.5029H125.619V41.9951C125.632 41.292 125.508 40.693 125.248 40.1982C125.001 39.7035 124.636 39.3258 124.154 39.0654C123.673 38.805 123.087 38.6748 122.396 38.6748C121.68 38.6748 121.088 38.8311 120.619 39.1436C120.163 39.4561 119.805 39.8857 119.545 40.4326C119.298 40.9665 119.122 41.585 119.018 42.2881C118.913 42.9912 118.861 43.7334 118.861 44.5146V45.2568C118.861 46.0381 118.965 46.7477 119.174 47.3857C119.395 48.0238 119.708 48.5706 120.111 49.0264C120.528 49.4691 121.023 49.8141 121.596 50.0615C122.182 50.3089 122.846 50.4326 123.588 50.4326C124.486 50.4326 125.372 50.2633 126.244 49.9248C127.117 49.5863 127.865 49.0264 128.49 48.2451L131.479 51.7998C131.049 52.4118 130.437 53.0042 129.643 53.5771C128.861 54.1501 127.924 54.6188 126.83 54.9834C125.736 55.335 124.512 55.5107 123.158 55.5107ZM141.186 38.499V55.1201H134.604V33.9873H140.775L141.186 38.499ZM140.404 43.8311L138.861 43.8701C138.861 42.2555 139.057 40.8167 139.447 39.5537C139.838 38.2777 140.391 37.1969 141.107 36.3115C141.824 35.4261 142.676 34.7555 143.666 34.2998C144.669 33.8311 145.782 33.5967 147.006 33.5967C147.982 33.5967 148.874 33.7399 149.682 34.0264C150.502 34.3128 151.205 34.7751 151.791 35.4131C152.39 36.0511 152.846 36.8975 153.158 37.9521C153.484 38.9938 153.646 40.2829 153.646 41.8193V55.1201H147.025V41.7998C147.025 40.9535 146.908 40.3089 146.674 39.8662C146.439 39.4105 146.101 39.098 145.658 38.9287C145.215 38.7594 144.675 38.6748 144.037 38.6748C143.36 38.6748 142.787 38.805 142.318 39.0654C141.85 39.3258 141.472 39.6904 141.186 40.1592C140.912 40.6149 140.71 41.1553 140.58 41.7803C140.463 42.4053 140.404 43.0889 140.404 43.8311ZM168.432 33.9873V38.5576H155.697V33.9873H168.432ZM158.373 28.7334H164.955V48.2256C164.955 48.7855 165.02 49.2217 165.15 49.5342C165.281 49.8337 165.502 50.0485 165.814 50.1787C166.14 50.2959 166.57 50.3545 167.104 50.3545C167.481 50.3545 167.794 50.348 168.041 50.335C168.288 50.3089 168.523 50.2764 168.744 50.2373V54.9443C168.184 55.1266 167.598 55.2633 166.986 55.3545C166.374 55.4587 165.723 55.5107 165.033 55.5107C163.627 55.5107 162.423 55.2894 161.42 54.8467C160.43 54.404 159.675 53.7074 159.154 52.7568C158.633 51.8063 158.373 50.5693 158.373 49.0459V28.7334Z" fill="white"/>
</svg>
