<svg width="61" height="61" viewBox="0 0 61 61" fill="none" xmlns="http://www.w3.org/2000/svg">
<path fill-rule="evenodd" clip-rule="evenodd" d="M0.0585938 30.9561C0.0585938 14.3876 13.4901 0.956055 30.0586 0.956055C46.6271 0.956055 60.0586 14.3876 60.0586 30.9561C60.0586 47.5246 46.6271 60.9561 30.0586 60.9561C13.4901 60.9561 0.0585938 47.5246 0.0585938 30.9561ZM30.0601 14.9561C25.7147 14.9561 25.1693 14.9751 23.4627 15.0527C21.7593 15.1307 20.5967 15.4004 19.5793 15.7961C18.527 16.2047 17.6343 16.7514 16.745 17.6411C15.855 18.5304 15.3082 19.4231 14.8982 20.4751C14.5016 21.4928 14.2316 22.6558 14.155 24.3584C14.0786 26.0652 14.0586 26.6108 14.0586 30.9562C14.0586 35.3016 14.078 35.8453 14.1552 37.5519C14.2336 39.2553 14.5032 40.4179 14.8986 41.4353C15.3076 42.4877 15.8542 43.3803 16.744 44.2697C17.633 45.1597 18.5256 45.7077 19.5773 46.1164C20.5953 46.5121 21.7583 46.7817 23.4613 46.8597C25.1681 46.9374 25.7131 46.9564 30.0581 46.9564C34.4038 46.9564 34.9475 46.9374 36.6542 46.8597C38.3575 46.7817 39.5215 46.5121 40.5396 46.1164C41.5916 45.7077 42.4828 45.1597 43.3718 44.2697C44.2618 43.3803 44.8086 42.4877 45.2186 41.4357C45.612 40.4179 45.882 39.2549 45.962 37.5523C46.0386 35.8456 46.0586 35.3016 46.0586 30.9562C46.0586 26.6108 46.0386 26.0656 45.962 24.3588C45.882 22.6554 45.612 21.4928 45.2186 20.4754C44.8086 19.4231 44.2618 18.5304 43.3718 17.6411C42.4818 16.7511 41.5918 16.2044 40.5386 15.7961C39.5185 15.4004 38.3552 15.1307 36.6518 15.0527C34.9451 14.9751 34.4018 14.9561 30.0551 14.9561H30.0601Z" fill="white"/>
<path fill-rule="evenodd" clip-rule="evenodd" d="M28.6247 17.839C29.0507 17.8383 29.5261 17.839 30.0601 17.839C34.3321 17.839 34.8385 17.8543 36.5255 17.931C38.0855 18.0023 38.9322 18.263 39.4962 18.482C40.2429 18.772 40.7752 19.1186 41.3349 19.6786C41.8949 20.2386 42.2416 20.772 42.5322 21.5187C42.7512 22.082 43.0122 22.9287 43.0832 24.4887C43.1599 26.1753 43.1766 26.6821 43.1766 30.9521C43.1766 35.2221 43.1599 35.7288 43.0832 37.4155C43.0119 38.9755 42.7512 39.8222 42.5322 40.3854C42.2422 41.1322 41.8949 41.6638 41.3349 42.2236C40.7749 42.7836 40.2432 43.1302 39.4962 43.4202C38.9329 43.6402 38.0855 43.9002 36.5255 43.9716C34.8389 44.0482 34.3321 44.0648 30.0601 44.0648C25.7877 44.0648 25.2814 44.0482 23.5947 43.9716C22.0347 43.8996 21.188 43.6388 20.6237 43.4198C19.877 43.1298 19.3436 42.7832 18.7836 42.2232C18.2236 41.6632 17.877 41.1312 17.5864 40.3842C17.3674 39.8208 17.1064 38.9742 17.0354 37.4142C16.9586 35.7275 16.9434 35.2208 16.9434 30.9481C16.9434 26.6753 16.9586 26.1713 17.0354 24.4847C17.1066 22.9247 17.3674 22.078 17.5864 21.514C17.8764 20.7673 18.2236 20.234 18.7836 19.674C19.3436 19.114 19.877 18.7673 20.6237 18.4766C21.1877 18.2566 22.0347 17.9966 23.5947 17.925C25.0707 17.8583 25.6427 17.8383 28.6247 17.835V17.839ZM38.6009 20.4956C37.5409 20.4956 36.6809 21.3547 36.6809 22.415C36.6809 23.475 37.5409 24.335 38.6009 24.335C39.6609 24.335 40.5209 23.475 40.5209 22.415C40.5209 21.355 39.6609 20.4956 38.6009 20.4956ZM30.0601 22.739C25.5224 22.739 21.8434 26.4181 21.8434 30.9557C21.8434 35.4935 25.5224 39.1708 30.0601 39.1708C34.5979 39.1708 38.2755 35.4935 38.2755 30.9557C38.2755 26.4181 34.5979 22.739 30.0601 22.739Z" fill="white"/>
<path fill-rule="evenodd" clip-rule="evenodd" d="M30.0629 25.6211C33.0082 25.6211 35.3962 28.0088 35.3962 30.9545C35.3962 33.8998 33.0082 36.2878 30.0629 36.2878C27.1171 36.2878 24.7295 33.8998 24.7295 30.9545C24.7295 28.0088 27.1171 25.6211 30.0629 25.6211Z" fill="white"/>
</svg>
