<svg width="200" height="33" viewBox="0 0 200 33" fill="none" xmlns="http://www.w3.org/2000/svg">
<path fill-rule="evenodd" clip-rule="evenodd" d="M10.7961 0.791992C15.6814 0.791992 19.6229 3.43952 19.6229 7.68427C19.6229 10.5847 17.9945 12.7276 17.3529 12.7276C16.7534 12.7276 13.668 10.8787 13.668 10.3329C13.668 10.1224 14.2676 9.15563 14.2676 8.18883C14.2676 6.42343 13.0241 5.16259 10.8824 5.16259C8.78271 5.16259 7.2826 6.54928 7.2826 8.60873C7.2826 10.7952 9.68208 12.0983 12.8106 13.6532C13.0558 13.777 13.3017 13.9011 13.5476 14.0261L14.2844 14.4036C18.204 16.434 21.8953 18.7668 21.8953 23.026C21.8953 28.448 17.0951 32.02 10.7109 32.02C4.45386 32.02 0.0830078 28.9515 0.0830078 23.4459C0.0830078 19.9151 2.31218 17.1829 2.82543 17.1829C3.51133 17.1829 6.46839 19.2011 6.46839 19.7469C6.46839 20.0833 5.43955 21.1759 5.43955 23.026C5.43955 25.7582 7.75387 27.6071 10.8824 27.6071C14.1381 27.6071 16.1958 25.7159 16.1958 23.1518C16.1958 20.7137 14.0529 19.327 9.33913 17.0994C5.22608 15.1658 1.71143 13.1063 1.71143 8.48287C1.71143 4.15461 5.52587 0.791992 10.7961 0.791992ZM145.82 0.791992C150.963 0.791992 154.22 4.23813 154.22 8.6934C154.22 13.1063 150.835 16.5101 146.464 17.6874C146.206 17.7721 145.863 17.8144 145.65 17.8144C145.092 17.8144 143.764 14.493 143.764 13.9473C143.764 13.7791 143.892 13.6532 144.107 13.5686C147.106 12.3912 148.949 10.8375 148.949 8.48287C148.949 6.67628 147.835 5.37311 145.735 5.37311C141.364 5.37311 138.194 11.0469 138.194 17.1417C138.194 23.3612 142.307 27.4389 147.835 27.4389C151.832 27.4389 154.904 25.4443 156.556 22.7627C156.512 22.3299 156.491 21.885 156.491 21.4287C156.491 15.5444 160.348 11.1303 165.661 11.1303C168.361 11.1303 170.246 12.0982 171.576 13.2744L171.704 13.2321V12.6863C171.704 12.0559 172.132 11.6772 172.69 11.6772H175.988C176.631 11.6772 177.017 12.0559 177.017 12.7698C177.017 13.5684 176.546 19.6633 176.546 22.9835C176.546 24.8748 177.317 26.4297 178.817 26.4297C180.911 26.4297 182.692 23.8428 183.704 21.5183L183.703 12.728C183.703 12.0975 184.044 11.6776 184.688 11.6776H188.117C188.801 11.6776 189.187 12.0564 189.187 12.7703C189.187 15.1238 188.973 21.1763 188.973 22.7735C188.973 24.9164 189.702 26.4301 191.459 26.4301C193.815 26.4301 195.829 23.4039 196.6 21.2609C196.687 21.0504 196.772 20.9246 197.029 20.9246C197.415 20.9246 199.943 22.0584 199.943 22.5218C199.943 22.6476 199.901 22.8158 199.857 22.9417C198.657 26.556 195.486 31.0113 190.258 31.0113C187.417 31.0113 185.397 29.813 184.403 27.6047C182.802 29.467 180.493 31.0108 177.403 31.0108C174.318 31.0108 172.089 29.5818 172.089 27.1448V26.7237L171.919 26.6825C170.847 28.9937 168.447 31.0108 164.719 31.0108C161.781 31.0108 159.441 29.6456 158.019 27.3576C155.679 29.9978 151.959 32.02 147.106 32.02C138.407 32.02 132.494 26.1781 132.494 17.2252C132.494 8.1465 137.893 0.791992 145.82 0.791992ZM85.358 1.67401C86.0859 1.67401 86.4288 2.0939 86.4288 2.80899C86.4288 5.58352 85.8724 18.6541 85.8724 23.0259C85.8724 24.9583 86.5571 26.4297 88.2719 26.4297C90.4766 26.4297 92.3327 23.5662 93.2432 21.5145L93.2418 12.728C93.2418 12.0975 93.5848 11.6776 94.2275 11.6776H97.6559C98.3418 11.6776 98.7267 12.0564 98.7267 12.7703C98.7267 15.1238 98.5132 21.1763 98.5132 22.7735C98.5132 24.9164 99.2411 26.4301 100.998 26.4301C102.822 26.4301 104.441 24.6177 105.437 22.8048C105.364 22.2924 105.327 21.7623 105.327 21.2186C105.327 15.4178 109.611 11.1307 115.997 11.1307C122.124 11.1307 126.109 15.4178 126.109 20.8822C126.109 25.8844 122.509 31.0113 115.396 31.0113C111.751 31.0113 108.879 29.5386 107.151 27.1598C105.473 29.3111 103.028 31.0113 99.7987 31.0113C96.964 31.0113 94.946 29.8186 93.9492 27.6201C92.2726 29.539 89.9139 31.0108 86.9852 31.0108C83.4286 31.0108 80.944 29.3724 80.944 26.8507V26.5143L80.7725 26.472C79.7017 28.6996 77.3442 31.0108 73.6592 31.0108C70.686 31.0108 68.3716 29.662 66.9481 27.4434C65.2741 29.4697 62.8797 31.0115 59.7749 31.0115C56.3034 31.0115 54.1618 29.2038 54.1618 26.7244C54.1618 26.5139 54.1618 26.1775 54.2038 26.0517L54.0323 26.0093C52.8763 28.4898 50.4756 31.0115 46.6192 31.0115C43.8558 31.0115 41.9622 29.7404 41.0171 27.5804C39.3259 29.5019 36.8497 31.0113 33.422 31.0113C28.7502 31.0113 25.5796 27.985 25.5796 23.4462V15.9224H24.4656C23.8229 15.9224 23.5231 15.7119 23.5231 15.0815V12.728C23.5231 12.2657 23.7366 11.9294 24.2942 11.9294H25.5796V7.13771C25.5796 6.42377 25.9657 6.00388 26.6085 6.00388H29.8653C30.5501 6.00388 30.893 6.42377 30.893 7.13771V12.014C32.2648 11.9717 33.8921 11.9294 34.9209 11.9294C35.307 11.9294 35.6068 12.1399 35.6068 12.6021V15.1661C35.6068 15.7542 35.3502 15.9224 34.8789 15.9224C33.8921 15.9224 32.308 15.8801 30.893 15.8801V21.3445C30.893 24.5389 31.7504 26.4301 34.536 26.4301C37.554 26.4301 39.4955 23.4551 40.3205 21.4342L40.3201 12.7694C40.3201 12.0131 40.7063 11.6767 41.391 11.6767H44.7342C45.462 11.6767 45.805 12.0978 45.805 12.7282C45.805 15.3345 45.5915 19.6628 45.5915 22.4797C45.5915 25.1272 46.2331 26.4304 48.1625 26.4304C51.1615 26.4304 53.7325 20.5461 53.7325 14.1984V12.7694C53.7325 12.0978 54.0323 11.6767 54.7613 11.6767H58.1465C58.8744 11.6767 59.2173 12.0554 59.2173 12.7694C59.2173 13.5137 59.0336 16.2059 58.9068 18.9432L58.869 19.8069C58.8218 20.9546 58.7892 22.0748 58.7892 23.0254C58.7892 24.8743 59.5603 26.4304 61.1467 26.4304C62.9158 26.4304 64.4436 24.582 65.4215 22.8429C65.3709 22.3714 65.3456 21.885 65.3456 21.3863C65.3456 15.8807 68.9023 11.1303 74.6449 11.1303C77.301 11.1303 79.7017 12.3911 81.0291 13.4003L81.2006 13.3591V2.76666C81.2006 2.05272 81.5436 1.67401 82.1863 1.67401H85.358ZM115.911 15.3343C112.697 15.3343 110.897 18.2347 110.897 21.1763C110.897 24.3707 112.782 26.8088 115.696 26.8088C118.824 26.8088 120.496 24.0343 120.496 20.714C120.496 17.7301 118.953 15.3343 115.911 15.3343ZM76.3585 15.7126C73.2299 15.7126 70.8736 18.1919 70.8736 21.6804C70.8736 24.5808 72.4589 26.4297 74.7732 26.4297C78.5445 26.4297 80.5579 21.0076 80.5579 17.5615C79.6585 16.7205 78.1152 15.7126 76.3585 15.7126ZM167.505 15.7126C164.376 15.7126 162.02 18.1919 162.02 21.7227C162.02 24.5384 163.605 26.4297 165.833 26.4297C169.861 26.4297 171.704 20.7559 171.704 17.5615C170.803 16.7205 169.261 15.7126 167.505 15.7126ZM96.0706 2.68245C97.6559 2.68245 98.9845 3.56572 98.9845 5.37231C98.9845 7.09653 97.8273 8.31503 95.8991 8.31503C94.2275 8.31503 93.0715 7.18005 93.0715 5.41465C93.0715 3.81743 94.3127 2.68245 96.0706 2.68245ZM186.53 2.68245C188.117 2.68245 189.444 3.56572 189.444 5.37231C189.444 7.09653 188.288 8.31503 186.359 8.31503C184.688 8.31503 183.531 7.18005 183.531 5.41465C183.531 3.81743 184.773 2.68245 186.53 2.68245Z" fill="white"/>
</svg>
