<svg width="200" height="123" viewBox="0 0 200 123" fill="none" xmlns="http://www.w3.org/2000/svg">
<path fill-rule="evenodd" clip-rule="evenodd" d="M57.249 99.5707C57.9506 99.5707 58.6165 99.6628 59.2497 99.8498C59.8859 100.034 60.5042 100.301 61.1077 100.651V104.888C60.6618 104.499 60.1713 104.169 59.6451 103.893C59.1219 103.62 58.554 103.486 57.9506 103.486C57.2668 103.486 56.7317 103.676 56.3423 104.056C55.9498 104.433 55.7566 104.968 55.7566 105.648C55.7566 106.253 55.9201 106.77 56.256 107.212C56.586 107.649 56.9963 108.067 57.4838 108.468C57.9714 108.869 58.5005 109.264 59.0773 109.664C59.651 110.065 60.1832 110.525 60.6707 111.054C61.1583 111.579 61.5685 112.194 61.8985 112.891C62.2315 113.592 62.395 114.441 62.395 115.436C62.395 116.406 62.2612 117.315 61.9847 118.149C61.7142 118.989 61.3069 119.713 60.7569 120.328C60.2129 120.939 59.544 121.423 58.7532 121.774C57.9654 122.124 57.0617 122.299 56.0479 122.299C55.4236 122.299 54.7726 122.207 54.0888 122.02C53.4081 121.836 52.8075 121.56 52.3022 121.189V117.039C52.8075 117.392 53.3278 117.674 53.857 117.888C54.3802 118.101 54.9658 118.208 55.6109 118.208C56.3125 118.208 56.9041 117.995 57.3946 117.567C57.8822 117.14 58.126 116.552 58.126 115.813C58.126 115.385 58.0457 115.023 57.8881 114.72C57.7365 114.417 57.5344 114.144 57.2906 113.901C57.0468 113.657 56.7733 113.432 56.4731 113.227C56.1698 113.025 55.8636 112.814 55.5485 112.6C54.9272 112.17 54.3623 111.745 53.857 111.315C53.3456 110.887 52.9175 110.415 52.5667 109.899C52.2159 109.379 51.9454 108.812 51.7641 108.189C51.5768 107.568 51.4846 106.856 51.4846 106.057C51.4846 105.179 51.6095 104.353 51.8651 103.573C52.1178 102.795 52.4835 102.109 52.9621 101.512C53.4378 100.919 54.0383 100.449 54.7637 100.096C55.4831 99.7459 56.3125 99.5707 57.249 99.5707ZM157.707 99.5707C158.409 99.5707 159.075 99.6628 159.708 99.8498C160.341 100.034 160.963 100.301 161.566 100.651V104.888C161.117 104.499 160.633 104.169 160.104 103.893C159.577 103.62 159.01 103.486 158.409 103.486C157.722 103.486 157.19 103.676 156.798 104.056C156.408 104.433 156.215 104.968 156.215 105.648C156.215 106.253 156.379 106.77 156.712 107.212C157.042 107.649 157.452 108.067 157.939 108.468C158.427 108.869 158.956 109.264 159.533 109.664C160.109 110.065 160.639 110.525 161.129 111.054C161.617 111.579 162.024 112.194 162.357 112.891C162.687 113.592 162.856 114.441 162.856 115.436C162.856 116.406 162.717 117.315 162.443 118.149C162.173 118.989 161.762 119.713 161.215 120.328C160.671 120.939 160.002 121.423 159.212 121.774C158.421 122.124 157.52 122.299 156.506 122.299C155.882 122.299 155.228 122.207 154.544 122.02C153.867 121.836 153.269 121.56 152.761 121.189V117.039C153.269 117.392 153.783 117.674 154.312 117.888C154.839 118.101 155.424 118.208 156.069 118.208C156.768 118.208 157.363 117.995 157.85 117.567C158.338 117.14 158.581 116.552 158.581 115.813C158.581 115.385 158.504 115.023 158.35 114.72C158.195 114.417 157.99 114.144 157.749 113.901C157.505 113.657 157.232 113.432 156.932 113.227C156.628 113.025 156.322 112.814 156.01 112.6C155.383 112.17 154.821 111.745 154.312 111.315C153.804 110.887 153.376 110.415 153.025 109.899C152.671 109.379 152.404 108.812 152.223 108.189C152.035 107.568 151.943 106.856 151.943 106.057C151.943 105.179 152.068 104.353 152.324 103.573C152.576 102.795 152.942 102.109 153.421 101.512C153.896 100.919 154.497 100.449 155.219 100.096C155.942 99.7459 156.768 99.5707 157.707 99.5707ZM76.6742 99.5722C78.3508 99.5722 79.7332 100.053 80.8272 101.018C81.9183 101.983 82.7001 103.245 83.1669 104.8L78.9216 106.436C78.8651 106.166 78.7968 105.863 78.7195 105.533C78.6451 105.201 78.5203 104.892 78.3538 104.61C78.1873 104.328 77.9733 104.091 77.7117 103.895C77.4471 103.702 77.1112 103.604 76.7009 103.604C76.2134 103.586 75.7972 103.702 75.4404 103.954C75.0926 104.206 74.7953 104.548 74.5515 104.975C74.3078 105.406 74.1145 105.893 73.9629 106.436C73.8202 106.982 73.7072 107.525 73.63 108.072C73.5527 108.618 73.5021 109.143 73.4813 109.648C73.4635 110.159 73.4546 110.583 73.4546 110.936C73.4546 111.5 73.4783 112.204 73.5289 113.041C73.5764 113.878 73.7072 114.686 73.9243 115.464C74.1383 116.242 74.4713 116.906 74.9321 117.45C75.3899 117.993 76.0201 118.269 76.8198 118.269C77.3639 118.269 77.8098 118.109 78.1517 117.785C78.4906 117.465 78.7551 117.07 78.9395 116.604C79.1268 116.135 79.2486 115.645 79.3051 115.128C79.3646 114.612 79.3943 114.157 79.3943 113.769H76.6117V109.678H83.7525V111.403C83.7525 112.572 83.6603 113.798 83.476 115.084C83.2887 116.369 82.9439 117.545 82.4355 118.605C81.9272 119.667 81.2107 120.546 80.2832 121.247C79.3586 121.95 78.1546 122.298 76.6742 122.298C75.6782 122.298 74.7953 122.131 74.0253 121.802C73.2554 121.472 72.5776 121.024 71.9919 120.457C71.4063 119.893 70.9157 119.243 70.5144 118.501C70.1131 117.761 69.7861 116.975 69.5334 116.135C69.2807 115.297 69.0964 114.445 68.9775 113.579C68.8615 112.712 68.802 111.869 68.802 111.052C68.802 109.788 68.918 108.478 69.1558 107.125C69.3877 105.771 69.8039 104.533 70.3955 103.414C70.9901 102.295 71.7987 101.371 72.8124 100.65C73.8262 99.9314 75.1104 99.5722 76.6742 99.5722ZM178.826 99.9222V104.01H174.408V108.805H178.302V112.893H174.408V117.859H178.885V121.95H170.05V99.9222H178.826ZM4.41522 99.9249C5.11682 99.9249 5.91354 99.9724 6.80242 100.067C7.68833 100.168 8.53262 100.418 9.32934 100.827C10.132 101.237 10.8039 101.863 11.3479 102.713C11.8949 103.559 12.1684 104.731 12.1684 106.23C12.1684 107.459 11.9217 108.567 11.4252 109.549C10.9258 110.532 10.132 111.325 9.038 111.93L12.873 121.95H8.27993L4.44495 111.782H4.3855V121.95H0.0302734V99.9249H4.41522ZM36.7111 99.9231V109.767H36.7675L40.4004 99.9231H44.8448L40.7779 110.088L45.371 121.951H40.7779L36.7675 110.729H36.7111V121.951H32.3529V99.9231H36.7111ZM95.1308 99.9249C95.8324 99.9249 96.6261 99.9724 97.518 100.067C98.4039 100.168 99.2452 100.418 100.045 100.827C100.845 101.237 101.519 101.863 102.063 102.713C102.61 103.559 102.884 104.731 102.884 106.23C102.884 107.459 102.634 108.567 102.138 109.549C101.641 110.532 100.845 111.325 99.7536 111.93L103.586 121.95H98.9955L95.1605 111.782H95.1011V121.95H90.7458V99.9249H95.1308ZM119.324 99.9246L124.619 121.949H119.967L119.149 118.239H114.731L113.941 121.949H109.612L114.731 99.9246H119.324ZM190.383 99.9237L195.826 113.215L195.882 113.158C195.743 112.63 195.65 112.084 195.603 111.519C195.555 110.955 195.529 110.391 195.529 109.827V99.9237H199.89V121.949H195.766L190.383 108.658L190.323 108.717L190.528 110.935L190.558 111.84V121.949H186.197V99.9237H190.383ZM24.572 99.9243V121.949H20.2109V99.9243H24.572ZM135.24 99.9237L140.683 113.215L140.74 113.158C140.6 112.63 140.508 112.084 140.46 111.519C140.41 110.955 140.386 110.391 140.386 109.827V99.9237H144.747V121.949H140.624L135.24 108.658L135.18 108.717L135.386 110.935L135.415 111.84V121.949H131.054V99.9237H135.24ZM116.896 105.589H116.839L116.366 108.92L115.436 114.792H118.504L117.392 108.92L116.896 105.589ZM5.28819 103.513L4.97115 103.517H4.3855V109.386L5.14654 109.416C6.14245 109.416 6.85296 109.119 7.28402 108.525C7.71211 107.932 7.92616 107.177 7.92616 106.26C7.92616 105.871 7.87859 105.503 7.78049 105.15C7.68238 104.8 7.5159 104.5 7.28402 104.247C7.04917 103.992 6.74296 103.802 6.35947 103.674C5.98191 103.55 5.51518 103.496 4.97115 103.517L5.28819 103.513ZM96.0053 103.513L95.6897 103.517H95.1011V109.386L95.8621 109.416C96.858 109.416 97.5685 109.119 97.9996 108.525C98.4277 107.932 98.6417 107.177 98.6417 106.26C98.6417 105.871 98.5941 105.503 98.496 105.15C98.3979 104.8 98.2315 104.5 97.9996 104.247C97.7647 103.992 97.4555 103.802 97.075 103.674C96.6975 103.55 96.2307 103.496 95.6897 103.517L96.0053 103.513ZM114.116 93.9338C114.722 93.9338 115.228 94.1534 115.638 94.5898C116.048 95.0292 116.25 95.5487 116.25 96.1544C116.25 96.7392 116.036 97.2379 115.611 97.6595C115.18 98.0781 114.663 98.2859 114.057 98.2859C113.474 98.2859 112.968 98.0781 112.537 97.6595C112.109 97.2379 111.895 96.7392 111.895 96.1544C111.895 95.5309 112.109 95.0025 112.537 94.575C112.968 94.1475 113.495 93.9338 114.116 93.9338ZM120.204 93.9338C120.808 93.9338 121.316 94.1534 121.721 94.5898C122.134 95.0292 122.336 95.5487 122.336 96.1544C122.336 96.7392 122.122 97.2379 121.691 97.6595C121.263 98.0781 120.748 98.2859 120.145 98.2859C119.559 98.2859 119.051 98.0781 118.62 97.6595C118.195 97.2379 117.978 96.7392 117.978 96.1544C117.978 95.5309 118.195 95.0025 118.62 94.575C119.051 94.1475 119.58 93.9338 120.204 93.9338ZM102.283 0.509766C131.941 0.509766 155.875 24.2713 156.042 53.8841C156.08 60.7537 154.826 67.3235 152.51 73.3648C151.924 74.9085 151.261 76.4166 150.539 77.8832L142.78 71.7914L137.842 75.7932C137.44 76.1197 136.923 76.2682 136.406 76.2088L129.057 75.3508C129.021 75.3449 128.986 75.3419 128.95 75.339C128.566 75.3182 128.186 75.4073 127.859 75.6032C127.835 75.6151 127.808 75.6329 127.788 75.6477L121.598 79.6584C120.706 80.2344 119.508 79.982 118.934 79.0855L115.527 73.8042L112.409 76.4226L120.528 83.7909C120.54 83.8028 120.549 83.8117 120.561 83.8235C121.506 84.7141 121.565 86.1985 120.688 87.1604C119.805 88.1341 118.298 88.2083 117.32 87.3266C117.317 87.3266 117.317 87.3266 117.317 87.3236L114.38 84.6577L109.528 87.0476C109.522 87.0505 109.513 87.0565 109.505 87.0594C108.755 87.4157 107.866 87.2554 107.293 86.6586L107.278 86.6438L104.674 83.8799C104.124 83.2981 103.27 83.12 102.533 83.4257L96.965 85.7413C96.2486 86.0382 95.4221 85.8749 94.8692 85.3287L89.6994 80.1928C89.1435 79.6377 88.2992 79.4803 87.5738 79.792L81.643 82.3748C81.0008 82.6509 80.2546 82.5589 79.6987 82.1343L74.8173 78.37C74.1127 77.8208 73.1228 77.8327 72.4271 78.3938L67.6944 82.2234C66.8798 82.8795 65.6936 82.7696 65.0188 81.98C65.0039 81.9651 64.995 81.9532 64.9861 81.9384L60.2831 76.1286L55.2054 80.1186C54.4176 78.7025 53.6952 77.2449 53.0382 75.7516C50.1367 69.1552 48.5284 61.861 48.5284 54.1929C48.5284 24.5444 72.5966 0.509766 102.283 0.509766ZM84.2531 57.313L64.0378 73.1837L65.6936 75.2291C65.7026 75.2351 65.7115 75.2469 65.7174 75.2559C66.3863 76.0515 67.5695 76.1732 68.387 75.526C68.39 75.523 68.396 75.5201 68.4019 75.5141L72.3617 72.3139C73.0514 71.7528 74.0414 71.7439 74.7489 72.2871L80.3795 76.6363C80.9384 77.0638 81.6846 77.1558 82.3267 76.8768L88.644 74.1277C89.3664 73.8131 90.2077 73.9734 90.7666 74.5285L95.9751 79.7C96.528 80.2492 97.3545 80.4095 98.0709 80.1127L103.743 77.7525C104.477 77.4497 105.328 77.6278 105.875 78.2008L105.884 78.2097L108.33 80.8044C108.339 80.8133 108.342 80.8192 108.351 80.8251C108.934 81.4219 109.832 81.5792 110.581 81.2111L94.6373 66.7386L90.508 62.9921L84.2531 57.313ZM129.94 61.7007L119.214 70.7078L120.355 72.4801C120.929 73.3737 122.124 73.632 123.019 73.0501L126.631 70.7078C126.649 70.6989 126.67 70.684 126.685 70.6751C127.021 70.4733 127.407 70.3812 127.79 70.402L127.906 70.4109L134.964 71.2392C135.478 71.3015 135.996 71.1472 136.4 70.8236L138.936 68.7692L129.94 61.7007ZM102.283 39.5008C94.2776 39.5008 87.7403 45.925 87.5768 53.8841L94.0903 59.7948L97.4853 62.8763L103.99 68.7841C111.303 67.938 116.999 61.7186 116.999 54.1929C116.999 46.0913 110.396 39.5008 102.283 39.5008ZM83.5069 51.809H74.0741C72.7571 51.809 71.6839 52.8777 71.6839 54.1929C71.6839 55.511 72.7571 56.5767 74.0741 56.5767H77.4631L83.5069 51.8357V51.809ZM130.496 51.809H123.453C122.133 51.809 121.066 52.8777 121.066 54.1929C121.066 55.511 122.133 56.5767 123.453 56.5767H130.496C131.156 56.5767 131.753 56.3096 132.184 55.8791C132.618 55.4486 132.883 54.849 132.883 54.1929C132.883 52.8777 131.816 51.809 130.496 51.809ZM123.92 32.5866C122.986 31.6545 121.473 31.6545 120.546 32.5866L115.56 37.5592C114.633 38.4914 114.633 39.9995 115.56 40.9317C116.497 41.8638 118.007 41.8638 118.94 40.9346L123.923 35.9561C124.853 35.0269 124.853 33.5188 123.923 32.5896L123.92 32.5866ZM84.0272 32.5896C83.0937 31.6545 81.5835 31.6545 80.65 32.5866C79.7195 33.5188 79.7195 35.0269 80.6471 35.9561L85.6296 40.9317C86.0933 41.3978 86.7087 41.6293 87.3181 41.6293C87.9276 41.6293 88.537 41.3978 89.0067 40.9317C89.9372 39.9995 89.9372 38.4914 89.0067 37.5592L84.0272 32.5896ZM102.283 23.639C100.966 23.639 99.8963 24.7047 99.8963 26.0228V33.0527C99.8963 33.7147 100.167 34.3085 100.598 34.7389C101.029 35.1724 101.623 35.4396 102.283 35.4396C103.603 35.4396 104.671 34.3708 104.671 33.0527V26.0228C104.671 24.7047 103.603 23.639 102.283 23.639Z" fill="white"/>
</svg>
