<svg width="201" height="51" viewBox="0 0 201 51" fill="none" xmlns="http://www.w3.org/2000/svg">
<path fill-rule="evenodd" clip-rule="evenodd" d="M15.1718 26.681V31.7736H6.62894C6.41945 31.7736 6.2798 31.95 6.2798 32.1602V35.6365C6.2798 35.7779 6.41945 35.953 6.62894 35.953H12.7203C14.365 35.953 15.486 37.0764 15.486 38.7276V47.6119C15.486 49.2631 14.365 50.3877 12.7203 50.3877H0.188477V45.2588H9.04552C9.28992 45.2588 9.42958 45.12 9.42958 44.9436V41.5022C9.42958 41.3259 9.28992 41.1858 9.04552 41.1858H2.9542C1.30948 41.1858 0.188477 40.0624 0.188477 38.4111V29.4556C0.188477 27.8056 1.30948 26.681 2.9542 26.681H15.1718ZM36.1765 26.6816V31.8093H30.8196V50.3871H24.7283V31.8093H19.3727V26.6816H36.1765ZM55.3953 26.681C57.04 26.681 58.161 27.8056 58.161 29.4556V47.6119C58.161 49.2631 57.04 50.3877 55.3953 50.3877H43.2476C41.6016 50.3877 40.4818 49.2631 40.4818 47.6119V29.4556C40.4818 27.8056 41.6016 26.681 43.2476 26.681H55.3953ZM79.0251 26.6815C80.5314 26.6815 81.7921 27.9112 81.7921 29.351V35.4619H75.7008V32.1594C75.7008 31.9492 75.5249 31.7741 75.3853 31.7741H70.9399C70.7292 31.7741 70.5546 31.9492 70.5546 32.1594V44.9091C70.5546 45.1192 70.7292 45.2593 70.9399 45.2593H75.3853C75.5249 45.2593 75.7008 45.1192 75.7008 44.9091V41.5365H81.7921V47.6824C81.7921 49.2286 80.5314 50.387 79.0251 50.387H67.158C65.6529 50.387 64.4621 49.2286 64.4621 47.6824V29.351C64.4621 27.9112 65.6529 26.6815 67.158 26.6815H79.0251ZM86.2508 0.422852C86.6984 0.422852 87.1374 0.467886 87.5688 0.545444V0.53919L87.6623 0.560456C87.7097 0.569213 87.7558 0.581722 87.8032 0.59173C87.9666 0.626756 88.1287 0.666786 88.2883 0.713072C88.3619 0.734338 88.4342 0.755604 88.5077 0.779372C88.6462 0.824406 88.7821 0.874444 88.9192 0.926984C88.9903 0.954505 89.0614 0.979524 89.1325 1.00955C89.3183 1.08961 89.5016 1.17467 89.6799 1.26974C89.7572 1.31102 89.8308 1.35731 89.9081 1.40109C90.0178 1.46364 90.1275 1.52869 90.2335 1.59749C90.3196 1.65253 90.4019 1.71133 90.4866 1.76887C90.5814 1.83642 90.6737 1.90648 90.766 1.97903C90.8483 2.04158 90.9293 2.10538 91.0079 2.17168C91.1089 2.25799 91.2049 2.34806 91.3021 2.44063C91.3583 2.49317 91.4181 2.54071 91.473 2.597C92.9144 4.04059 93.6352 5.93828 93.6352 7.83722H93.6414L93.6601 36.5502L99.7864 26.6815H106.577L99.7502 36.9718L106.858 50.387H100.207L95.5854 41.3264L93.6601 44.4525V50.387H87.5688V7.83722C87.5676 7.49947 87.4379 7.15921 87.181 6.90151C86.8456 6.56376 86.4528 6.51497 86.2508 6.51497C86.0438 6.51497 85.656 6.56376 85.3193 6.90151L84.2108 8.01861L79.9151 12.3231L75.6231 8.01861L74.5096 6.90151C74.1741 6.56376 73.7813 6.51497 73.5781 6.51497C73.3761 6.51497 72.9845 6.56376 72.6479 6.90151C72.1341 7.4169 72.1341 8.25754 72.6479 8.76918L73.7614 9.88627L78.0521 14.192L79.9151 16.0597L81.7767 14.192L85.545 10.4154V19.0282L79.9151 24.6775L68.3521 13.0787C65.4742 10.1865 65.4742 5.48419 68.3521 2.597C69.7487 1.19469 71.6029 0.422852 73.5781 0.422852C75.5508 0.422852 77.4087 1.19469 78.8065 2.597L79.9151 3.70909L81.0236 2.597C82.4202 1.19469 84.2744 0.422852 86.2508 0.422852ZM116.974 26.6816V35.7422H122.751V26.6816H128.842V50.3871H122.751V40.975H116.974V50.3871H110.883V26.6816H116.974ZM150.266 26.681C151.911 26.681 153.032 27.8056 153.032 29.4556V47.6119C153.032 49.2631 151.911 50.3877 150.266 50.3877H138.12C136.474 50.3877 135.354 49.2631 135.354 47.6119V29.4556C135.354 27.8056 136.474 26.681 138.12 26.681H150.266ZM165.601 26.6815V45.2593H173.128V50.387H159.545V26.6815H165.601ZM184.47 26.6815L189.231 37.7436L193.608 26.6815H200.048V50.387H194.307V36.7254L190.316 46.1375H187.935L183.911 36.9718V50.387H178.309V26.6815H184.47ZM51.6844 31.8086H46.8886C46.7477 31.8086 46.5732 31.985 46.5732 32.1952V44.9436C46.5732 45.12 46.7477 45.2588 46.8886 45.2588H51.6844C51.8939 45.2588 52.0697 45.12 52.0697 44.9436V32.1952C52.0697 31.985 51.8939 31.8086 51.6844 31.8086ZM146.556 31.8086H141.76C141.62 31.8086 141.446 31.985 141.446 32.1952V44.9436C141.446 45.12 141.62 45.2588 141.76 45.2588H146.556C146.765 45.2588 146.941 45.12 146.941 44.9436V32.1952C146.941 31.985 146.765 31.8086 146.556 31.8086Z" fill="white"/>
</svg>
