<svg width="200" height="57" viewBox="0 0 200 57" fill="none" xmlns="http://www.w3.org/2000/svg">
<path fill-rule="evenodd" clip-rule="evenodd" d="M82.8782 0.331598C82.9697 0.424236 82.9923 0.560547 82.9459 0.7445C82.9007 1.15608 82.8091 1.79793 82.6711 2.6674C88.4601 2.57609 92.9389 2.78254 96.1088 3.28543C96.4301 3.33175 96.4978 3.5157 96.3159 3.83597C95.8102 4.70676 94.8902 5.11834 93.5588 5.07202C90.2057 4.93439 86.4835 5.00321 82.395 5.27847C81.706 13.0654 81.3622 21.8819 81.3622 31.728C81.3622 40.0654 81.6596 46.6837 82.2569 51.583C87.357 51.4453 87.9238 51.5777 90.9557 52.0819C91.3234 52.1269 91.415 52.3108 91.2318 52.6311C90.726 53.5006 89.83 53.936 88.5437 53.936C84.4087 53.891 83.4954 54.1226 78.8122 54.6056C75.5174 54.9471 72.4152 55.3851 69.155 56.4399C68.8789 56.5312 68.6957 56.5312 68.6028 56.4399C68.5576 56.3485 68.5576 56.1646 68.6028 55.8906C69.0621 54.0577 69.9355 52.958 71.2218 52.5927C74.0692 51.7682 76.0962 51.763 79.7069 51.6518C79.294 51.1476 79.0418 50.5534 78.9502 49.8652C78.5812 46.6136 78.3993 42.1021 78.3993 36.3321C78.3993 23.691 78.9728 13.4081 80.121 5.48492C75.5267 5.85151 71.3466 6.53835 67.5793 7.54546C67.2581 7.6381 67.051 7.6381 66.9594 7.54546C66.8213 7.45414 66.7988 7.27152 66.8904 6.99625C67.3483 5.25598 68.1992 4.22505 69.4404 3.90478C71.7369 3.30925 75.4577 2.89767 80.6042 2.6674C80.9706 1.47766 81.6144 0.699504 82.533 0.331598C82.7162 0.286603 82.8317 0.286603 82.8782 0.331598ZM18.0531 1.56951C21.9571 1.52319 24.8523 3.3786 26.736 7.13441C28.1603 9.92679 28.7802 12.9733 28.597 16.2712C28.3661 20.2109 27.1262 22.5004 24.8762 23.141C24.6001 23.2336 24.4156 23.2548 24.3253 23.2098C24.2324 23.1185 24.2324 22.9133 24.3253 22.5931C24.7833 20.7681 25.0143 18.7817 25.0143 16.6364C25.0143 13.0778 24.4156 10.0419 23.2222 7.53143C21.9359 4.79331 20.2593 3.46991 18.1912 3.5599C15.2509 3.65387 12.219 6.21332 9.09417 11.2436C5.64944 16.9157 3.85738 23.3871 3.72065 30.6579C3.62773 36.5576 4.68438 41.3271 6.88928 44.9625C9.09417 48.5979 12.0809 50.3699 15.8482 50.2773C18.8801 50.231 21.5337 48.9155 23.8076 46.3283C26.0748 43.7487 28.8433 39.7247 28.9032 34.4661C29.0765 25.5225 29.7745 18.3812 30.9944 13.0412C31.3157 11.6225 31.9356 10.7517 32.8555 10.4314C33.1316 10.3388 33.2922 10.3388 33.3387 10.4314C33.3387 10.4777 33.3148 10.614 33.2697 10.843C32.1201 17.2562 31.5466 26.0952 31.5466 37.3613V43.0638C32.5183 38.3472 33.8856 34.4075 35.6471 31.2472C36.0639 30.469 36.5498 30.0799 37.106 30.0799C37.4763 30.0799 37.8945 30.2639 38.3564 30.6292C39.283 31.3623 39.7476 32.646 39.7476 34.4776C39.6547 42.5834 40.2746 46.8421 41.6074 47.2551C42.1596 47.439 42.7556 46.9454 43.3994 45.7781C43.7286 45.1786 43.9955 44.509 44.2052 43.7705C44.1428 43.1843 44.1016 42.5623 44.0884 41.8966C44.0419 38.645 44.4083 35.805 45.1902 33.3779C45.5114 32.3708 46.1087 31.7752 46.9822 31.5913C47.1654 31.5913 47.3273 31.6826 47.4654 31.8665C46.8667 34.7052 46.5694 37.5677 46.5694 40.4528C46.5694 45.3996 47.1203 48.057 48.222 48.4236C48.8659 48.6526 49.6358 48.0795 50.5318 46.7058C51.4278 45.3321 52.0584 43.5905 52.4261 41.4837C52.438 41.4255 52.4513 41.3739 52.4646 41.3275C52.1194 39.1942 51.9429 36.6864 51.9429 33.7894C51.9429 29.7134 52.3332 25.1794 53.115 20.1875C54.2633 13.2714 55.7792 9.81337 57.6629 9.81337C58.2589 9.81337 58.835 10.18 59.3859 10.9118C60.6271 12.4694 61.2456 15.058 61.2456 18.6749C61.2456 22.2467 60.6722 25.8887 59.5239 29.5982C58.2841 33.4454 56.7429 36.1941 54.9071 37.8443C55.2735 44.8054 56.4456 48.286 58.4222 48.286C59.293 48.286 60.2129 47.6322 61.1779 46.3287C62.0196 45.1892 62.6939 43.7838 63.2209 42.1401C62.7802 39.8387 62.5545 37.0649 62.5545 33.7894C62.5545 29.7134 62.9448 25.1794 63.7267 20.1875C64.8749 13.2714 66.3895 9.81337 68.2745 9.81337C68.8718 9.81337 69.4466 10.18 69.9975 10.9118C71.2374 12.4694 71.8586 15.058 71.8586 18.6749C71.8586 22.2467 71.2838 25.8887 70.1356 29.5982C68.8944 33.4454 67.3559 36.1941 65.5187 37.8443C65.8864 44.8054 67.0572 48.286 69.0325 48.286C69.9046 48.286 70.8245 47.6322 71.7896 46.3287C72.7546 45.0211 73.5126 43.3854 74.0635 41.4162C74.2015 41.0033 74.3396 40.9583 74.4763 41.2772C74.706 41.6901 74.7524 42.5146 74.6144 43.7507C74.4763 45.3083 74.017 46.7058 73.2365 47.9419C72.3166 49.4982 71.1219 50.2777 69.6537 50.2777C69.2395 50.2777 68.8254 50.2089 68.4125 50.0726C66.351 49.4916 64.8404 47.6931 63.8674 44.7009C63.651 45.88 63.2421 46.9626 62.6249 47.9419C61.7049 49.4982 60.5116 50.2777 59.0408 50.2777C58.6279 50.2777 58.2151 50.2089 57.8009 50.0726C55.6597 49.4691 54.1093 47.5555 53.1429 44.3515C53.0208 45.8364 52.6451 47.1134 52.0132 48.1828C51.1862 49.5803 50.1522 50.2777 48.9123 50.2777C48.5898 50.2777 48.2459 50.2089 47.8782 50.0726C46.5601 49.6014 45.5884 48.5824 44.9565 47.0235C44.4481 48.3667 43.5627 49.0403 42.2963 49.0403C41.9751 49.0403 41.6525 48.9728 41.3326 48.8352C39.0348 48.057 37.6794 46.2929 37.2666 43.5456C36.9905 41.6676 36.8524 38.3234 36.8524 33.5142C36.7595 32.875 36.5949 32.8048 36.3626 33.309C33.9852 38.3936 32.5874 43.9585 32.1666 50.0024C32.1214 50.5066 31.8971 50.6906 31.4922 50.553C30.0546 50.0474 29.2687 48.8815 29.1347 47.0499C29.0352 45.8406 28.9628 44.5114 28.9171 43.0625C28.07 45.2471 26.8497 47.16 25.4961 48.5595C23.2912 50.8503 20.5102 52.0864 17.1584 52.2703C12.7473 52.4993 8.91098 50.9192 5.64944 47.5299C2.02019 43.7291 0.181676 38.4845 0.136543 31.796C0.0900823 23.5989 2.06533 16.4313 6.0636 10.2934C9.73798 4.56834 13.7349 1.66082 18.0531 1.56951ZM150.176 15.6517C150.358 15.6067 150.473 15.6067 150.52 15.6517C150.565 15.698 150.565 15.8356 150.52 16.0646C150.197 17.7136 149.854 20.0494 149.486 23.072C153.666 22.9807 157.364 23.1951 160.582 23.7125C160.81 23.7602 160.857 23.9031 160.719 24.1387C160.259 24.8017 159.593 25.1114 158.721 25.065C155.551 24.9274 152.402 24.9274 149.279 25.065C148.866 29.0141 148.612 32.7831 148.522 36.3682C148.336 44.1763 149.096 48.079 150.796 48.079C151.485 48.079 152.219 47.5298 153.001 46.43C153.658 45.505 154.166 44.2835 154.531 42.7722C154.59 42.3368 154.651 41.8895 154.723 41.4157C155.227 38.1178 155.526 35.8508 155.619 34.6134C154.194 33.8815 153.528 32.5767 153.619 30.6974C153.666 29.4164 153.942 28.3855 154.446 27.6073C154.861 26.9655 155.319 26.6439 155.826 26.6439C156.927 26.6439 157.478 28.7732 157.478 33.0332C159.728 33.1722 161.751 32.0261 163.544 29.5977C163.82 29.1861 164.163 29.1861 164.576 29.5977C165.265 30.3322 165.61 31.0415 165.61 31.7284C165.61 32.05 165.541 32.3927 165.403 32.7593C163.749 36.3775 162.922 40.2021 162.922 44.2319C162.922 47.2545 163.544 48.7672 164.783 48.7672C166.366 48.7672 167.741 46.8773 168.908 43.1123C168.88 42.7205 168.857 42.3196 168.849 41.8961C168.803 38.6445 169.171 35.8058 169.952 33.3773C170.272 32.3702 170.87 31.7747 171.743 31.5907C171.926 31.5907 172.088 31.6834 172.226 31.866C171.628 34.706 171.33 37.5685 171.33 40.4536C171.33 45.4004 171.881 48.0578 172.984 48.4231C173.627 48.6534 174.397 48.079 175.293 46.7053C175.836 45.8729 176.268 44.8883 176.618 43.7872C176.404 42.9191 176.291 41.9927 176.291 41.0041C176.291 40.1333 176.383 39.2413 176.567 38.3229C177.072 35.4842 177.921 33.2397 179.116 31.5907C180.219 30.1257 181.412 29.3926 182.7 29.3926C183.296 29.3926 183.871 29.5765 184.423 29.9418C185.984 31.0415 186.766 32.6217 186.766 34.6822C186.766 35.4167 186.673 36.171 186.49 36.9492C186.029 38.8734 185.1 40.4072 183.699 41.5533C182.298 42.698 180.815 43.3174 179.254 43.4074C179.53 46.0185 180.241 47.5298 181.39 47.9427C181.711 48.079 182.08 48.1478 182.493 48.1478C183.826 48.1478 185.169 47.5417 186.526 46.3281C187.499 45.4547 188.287 44.3708 188.894 43.0818C188.841 42.8714 188.776 42.6147 188.695 42.309C188.327 40.8426 188.442 39.7905 189.04 39.1474C189.315 38.8734 189.544 39.3538 189.729 40.5912C190.922 34.4069 192.576 30.3322 194.689 28.363C195.102 27.9501 195.539 27.7436 195.998 27.7436C196.551 27.7436 197.077 28.0189 197.585 28.5681C197.859 28.8884 197.813 29.1861 197.447 29.4614C196.803 30.0106 196.481 30.9039 196.481 32.14C196.481 34.0642 197.193 36.6303 198.617 39.8355C199.536 41.9887 199.995 43.7978 199.995 45.2615C199.995 46.7741 199.513 47.9758 198.55 48.8691C197.585 49.7624 196.504 50.2097 195.309 50.2097C192.968 50.2097 191.083 48.6282 189.66 45.4692C189.567 45.6982 189.384 45.9496 189.108 46.2249C189.072 46.2527 189.041 46.2673 189.009 46.2858C188.632 46.974 188.176 47.5867 187.627 48.1147C186.41 49.2806 184.974 49.8656 183.32 49.8656C182.493 49.8656 181.666 49.7055 180.839 49.3852C179.691 48.9273 178.703 48.034 177.876 46.7053C177.771 46.5478 177.677 46.3837 177.583 46.2209C177.39 46.9369 177.123 47.5933 176.774 48.1822C175.947 49.5797 174.913 50.2772 173.673 50.2772C173.351 50.2772 173.006 50.2097 172.639 50.072C171.117 49.5281 170.052 48.259 169.445 46.2633C168.679 49.3058 167.308 50.8264 165.336 50.8264C163.544 50.8264 162.187 49.8418 161.268 47.8739C160.533 46.3612 160.166 44.6448 160.166 42.7205C160.166 40.1558 160.695 37.3396 161.751 34.2706C160.648 34.7762 159.385 35.0263 157.96 35.0263H157.409C157.363 35.8997 157.204 37.9934 156.927 41.3045C156.697 44.0651 156.582 46.2276 156.582 47.7892C156.582 48.9855 156.651 50.0429 156.789 50.9627C156.835 51.193 156.789 51.3306 156.651 51.3769C156.558 51.4682 156.399 51.4682 156.17 51.3769C154.999 51.0024 154.348 49.9768 154.205 48.3146C153.455 49.3905 152.504 49.9344 151.347 49.9344C151.024 49.9344 150.681 49.8881 150.313 49.7968C148.429 49.3376 147.143 48.0102 146.454 45.812C145.903 43.9341 145.696 40.9115 145.834 36.7441C145.926 32.9433 146.316 29.0485 147.005 25.065C145.306 25.2014 143.605 25.4316 141.906 25.7519C141.676 25.7969 141.538 25.7519 141.493 25.6143C141.402 25.5229 141.402 25.4078 141.493 25.2702C141.676 24.2167 142.365 23.6225 143.56 23.4836C144.387 23.3936 145.627 23.3023 147.281 23.2096C147.832 20.5073 148.291 18.538 148.659 17.3006C148.888 16.4762 149.393 15.927 150.176 15.6517ZM115.771 9.67521C115.954 9.63021 116.07 9.63021 116.115 9.67521C116.208 9.72153 116.229 9.83667 116.184 10.018C114.576 18.3091 113.817 27.2182 113.91 36.7441C113.955 39.4914 114.048 41.6208 114.186 43.1334C114.462 46.34 114.989 48.1028 115.771 48.4231C116.322 48.6534 116.964 48.1028 117.7 46.7741C118.074 46.0979 118.394 45.3078 118.661 44.4079C118.531 43.3915 118.458 42.2653 118.458 41.0041C118.458 37.7975 118.872 34.661 119.698 31.5907C120.065 30.217 120.708 29.4614 121.628 29.3238C121.857 29.2788 122.018 29.2788 122.11 29.3238C122.156 29.3701 122.156 29.5077 122.11 29.7367C121.514 32.8043 121.215 36.171 121.215 39.8355C121.215 42.8132 121.466 44.9875 121.973 46.3612C122.386 47.5073 123.007 48.079 123.833 48.079C125.119 48.079 126.015 45.767 126.521 41.1404L127.486 32.5529C127.715 31.2255 128.427 30.4222 129.622 30.1482C129.851 30.1032 130.012 30.1257 130.103 30.2171C130.15 30.2634 130.15 30.401 130.103 30.63C129.598 34.3381 129.347 37.7049 129.347 40.7288C129.347 45.4468 129.988 47.8037 131.276 47.8037C131.781 47.8037 132.32 47.1976 132.895 45.9841C133.288 45.153 133.593 44.1908 133.826 43.1123C133.773 42.8979 133.704 42.6306 133.619 42.309C133.251 40.8426 133.366 39.7905 133.962 39.1474C134.238 38.8734 134.468 39.3538 134.653 40.5912C135.847 34.4069 137.5 30.3322 139.613 28.363C140.027 27.9501 140.464 27.7436 140.924 27.7436C141.474 27.7436 142.001 28.0189 142.508 28.5681C142.783 28.8884 142.737 29.1861 142.37 29.4614C141.727 30.0106 141.405 30.9039 141.405 32.14C141.405 34.0642 142.117 36.6303 143.541 39.8355C144.46 41.9887 144.919 43.7978 144.919 45.2615C144.919 46.7741 144.437 47.9758 143.474 48.8691C142.508 49.7624 141.428 50.2097 140.235 50.2097C138.01 50.2097 136.199 48.7817 134.804 45.9338C134.384 48.4588 133.28 49.728 131.483 49.728C129.598 49.728 128.244 48.4231 127.417 45.812C126.819 47.7826 125.877 49.1338 124.591 49.8656C124.04 50.1859 123.442 50.346 122.8 50.346C121.788 50.346 120.961 49.9569 120.319 49.1787C120.011 48.7923 119.743 48.3357 119.512 47.8064C118.88 49.499 117.908 50.346 116.598 50.346C116.275 50.346 115.954 50.301 115.633 50.2097C113.428 49.4765 112.026 47.416 111.429 44.0267C110.785 48.1028 109.155 50.1409 106.536 50.1409C104.652 50.1409 103.205 49.3124 102.195 47.6595C102.105 47.5139 102.023 47.3604 101.942 47.2069C101.882 47.3432 101.818 47.4742 101.748 47.5986C101.128 48.6984 100.289 49.2476 99.2323 49.2476C96.5217 49.2476 94.8916 47.4385 94.3393 43.819C94.0646 41.9437 93.9265 38.5982 93.9265 33.7889C93.8336 33.1484 93.673 33.0796 93.4446 33.5825C91.1468 38.622 89.7225 44.0267 89.1716 49.7968C89.1251 50.301 88.918 50.5061 88.5517 50.4148C87.1273 50.1409 86.3693 49.4077 86.2777 48.2166C86.0468 45.8808 86.0016 42.927 86.1397 39.3538C86.2777 35.5067 86.5525 32.5079 86.9667 30.3547C87.1963 29.2099 87.7937 28.4993 88.7574 28.224C88.9871 28.179 89.1477 28.179 89.2406 28.224C89.3322 28.2703 89.3548 28.408 89.3096 28.6369C88.6658 32.9896 88.4587 37.9351 88.6897 43.4762C89.745 38.438 91.1004 34.4533 92.7557 31.5219C93.2137 30.6974 93.6969 30.2859 94.2026 30.2859C94.9832 30.2859 95.6495 30.7451 96.2004 31.6596C96.6146 32.3477 96.8217 33.3773 96.8217 34.751C96.7288 42.8582 97.3487 47.0957 98.6814 47.461C99.3239 47.6449 99.9677 47.1076 100.612 45.8464C100.797 45.4812 100.951 45.0934 101.088 44.6964C100.954 43.9857 100.886 43.2287 100.886 42.4215C100.886 41.1801 101.024 39.8488 101.299 38.4235C101.895 35.3902 102.838 33.0253 104.125 31.3247C105.41 29.6242 106.72 28.7732 108.053 28.7732C109.293 28.7732 110.372 29.5527 111.291 31.1103C111.843 22.8656 112.831 16.1572 114.255 10.9801C114.438 10.3396 114.944 9.90548 115.771 9.67521ZM108.86 30.7663C108.072 30.585 107.155 31.4544 106.111 33.3773C105.066 35.3016 104.359 37.5685 103.989 40.1796C103.849 41.1867 103.78 42.1263 103.78 42.9945C103.78 44.7374 104.023 46.0992 104.51 47.0825C104.997 48.0684 105.543 48.5845 106.146 48.6282C107.166 48.7222 108.21 47.5748 109.278 45.194C110.436 42.5379 110.97 39.5166 110.878 36.1247C110.83 34.5684 110.575 33.2635 110.112 32.2088C109.74 31.3406 109.324 30.8589 108.86 30.7663ZM194.208 32.484C193.196 34.088 192.025 37.6599 190.692 43.2023C191.427 44.7586 192.369 45.996 193.519 46.9104C194.529 47.7349 195.47 48.1478 196.343 48.1478C197.308 48.1478 197.79 47.6224 197.79 46.569C197.79 45.6519 197.17 43.7515 195.929 40.8651C194.689 37.9801 194.07 35.6906 194.07 33.9954C194.07 33.4461 194.115 32.9433 194.208 32.484ZM139.131 32.484C138.12 34.088 136.949 37.6599 135.618 43.2023C136.352 44.7586 137.293 45.996 138.443 46.9104C139.453 47.7349 140.394 48.1478 141.267 48.1478C142.232 48.1478 142.714 47.6224 142.714 46.569C142.714 45.6519 142.094 43.7515 140.854 40.8651C139.613 37.9801 138.993 35.6906 138.993 33.9954C138.993 33.4461 139.039 32.9433 139.131 32.484ZM183.596 31.2467C182.861 31.0653 182.034 31.821 181.115 33.5136C180.105 35.3466 179.484 37.4772 179.254 39.9044C179.162 40.9578 179.14 41.7359 179.186 42.2402C180.839 41.8736 182.172 40.7063 183.182 38.7358C184.009 37.1331 184.423 35.4167 184.423 33.5825C184.423 32.1651 184.147 31.3843 183.596 31.2467ZM58.1461 12.6296C57.639 12.3543 57.0429 13.9808 56.354 17.5063C55.6651 21.0345 55.2044 24.8829 54.9761 29.049C54.8832 30.8819 54.8381 33.1714 54.8381 35.9188C57.5022 31.7064 58.835 25.6386 58.835 17.7141C58.835 14.5525 58.604 12.8598 58.1461 12.6296ZM68.7577 12.6296C68.2506 12.3543 67.6546 13.9808 66.9656 17.5063C66.2767 21.0345 65.816 24.8829 65.5877 29.049C65.4948 30.8819 65.4497 33.1714 65.4497 35.9188C68.1139 31.7064 69.4466 25.6386 69.4466 17.7141C69.4466 14.5525 69.2156 12.8598 68.7577 12.6296ZM47.1892 26.7136C48.0613 26.576 48.5671 27.0564 48.7051 28.1561C48.7967 28.798 48.6586 29.3472 48.2923 29.8051C47.9232 30.2643 47.4878 30.5382 46.9821 30.6296C46.4763 30.7209 46.0635 30.619 45.7422 30.3212C45.4197 30.0234 45.3042 29.5761 45.3971 28.9806C45.5803 27.6069 46.179 26.8512 47.1892 26.7136ZM173.242 26.7136C174.113 26.576 174.618 27.0564 174.756 28.1561C174.848 28.798 174.71 29.3472 174.343 29.8051C173.976 30.2643 173.539 30.5382 173.035 30.6296C172.529 30.7209 172.115 30.619 171.793 30.3212C171.472 30.0234 171.357 29.5761 171.45 28.9806C171.632 27.6069 172.23 26.8512 173.242 26.7136Z" fill="white"/>
</svg>
