<svg width="93" height="38" viewBox="0 0 93 38" fill="none" xmlns="http://www.w3.org/2000/svg">
<circle cx="32.8291" cy="3.52709" r="2.71777" fill="#4BB1F5"/>
<circle cx="16.5224" cy="21.3874" r="16.3066" fill="#4BB1F5"/>
<rect x="16.6699" y="30.2461" width="12.7372" height="12.3196" rx="2.5" transform="rotate(-135 16.6699 30.2461)" fill="white"/>
<path d="M48.4512 25.498V28.1348H40.873V25.498H48.4512ZM42.0938 13.916V28.1348H38.666V13.916H42.0938ZM47.4746 19.5605V22.1094H40.873V19.5605H47.4746ZM48.4805 13.916V16.5625H40.873V13.916H48.4805ZM53.2559 25.8789L55.3359 17.5684H58.8027L55.3457 28.1348H53.2949L53.2559 25.8789ZM52.0254 17.5684L54.0762 25.8789L54.0566 28.1348H51.9961L48.5488 17.5684H52.0254ZM64.7598 28.3301C63.9004 28.3301 63.1322 28.1966 62.4551 27.9297C61.778 27.6562 61.2051 27.2819 60.7363 26.8066C60.2741 26.3314 59.9193 25.7845 59.6719 25.166C59.431 24.5475 59.3105 23.8932 59.3105 23.2031V22.832C59.3105 22.0573 59.418 21.3411 59.6328 20.6836C59.8477 20.0195 60.1667 19.4401 60.5898 18.9453C61.013 18.4505 61.5436 18.0664 62.1816 17.793C62.8197 17.513 63.5618 17.373 64.4082 17.373C65.1569 17.373 65.8275 17.4935 66.4199 17.7344C67.0124 17.9753 67.5137 18.3203 67.9238 18.7695C68.3405 19.2188 68.6562 19.7624 68.8711 20.4004C69.0924 21.0384 69.2031 21.7546 69.2031 22.5488V23.8867H60.5703V21.8262H65.9902V21.5723C65.9967 21.2207 65.9349 20.9212 65.8047 20.6738C65.681 20.4264 65.4987 20.2376 65.2578 20.1074C65.0169 19.9772 64.724 19.9121 64.3789 19.9121C64.0208 19.9121 63.7246 19.9902 63.4902 20.1465C63.2624 20.3027 63.0833 20.5176 62.9531 20.791C62.8294 21.0579 62.7415 21.3672 62.6895 21.7188C62.6374 22.0703 62.6113 22.4414 62.6113 22.832V23.2031C62.6113 23.5938 62.6634 23.9486 62.7676 24.2676C62.8783 24.5866 63.0345 24.86 63.2363 25.0879C63.4447 25.3092 63.6921 25.4818 63.9785 25.6055C64.2715 25.7292 64.6035 25.791 64.9746 25.791C65.4238 25.791 65.8665 25.7064 66.3027 25.5371C66.7389 25.3678 67.1133 25.0879 67.4258 24.6973L68.9199 26.4746C68.7051 26.7806 68.3991 27.0768 68.002 27.3633C67.6113 27.6497 67.1426 27.8841 66.5957 28.0664C66.0488 28.2422 65.4368 28.3301 64.7598 28.3301ZM73.7734 19.8242V28.1348H70.4824V17.5684H73.5684L73.7734 19.8242ZM73.3828 22.4902L72.6113 22.5098C72.6113 21.7025 72.709 20.9831 72.9043 20.3516C73.0996 19.7135 73.3763 19.1732 73.7344 18.7305C74.0924 18.2878 74.5189 17.9525 75.0137 17.7246C75.515 17.4902 76.0716 17.373 76.6836 17.373C77.1719 17.373 77.6178 17.4447 78.0215 17.5879C78.4316 17.7311 78.7832 17.9622 79.0762 18.2812C79.3757 18.6003 79.6035 19.0234 79.7598 19.5508C79.9225 20.0716 80.0039 20.7161 80.0039 21.4844V28.1348H76.6934V21.4746C76.6934 21.0514 76.6348 20.7292 76.5176 20.5078C76.4004 20.2799 76.2311 20.1237 76.0098 20.0391C75.7884 19.9544 75.5182 19.9121 75.1992 19.9121C74.8607 19.9121 74.5742 19.9772 74.3398 20.1074C74.1055 20.2376 73.9167 20.4199 73.7734 20.6543C73.6367 20.8822 73.5358 21.1523 73.4707 21.4648C73.4121 21.7773 73.3828 22.1191 73.3828 22.4902ZM87.3965 17.5684V19.8535H81.0293V17.5684H87.3965ZM82.3672 14.9414H85.6582V24.6875C85.6582 24.9674 85.6908 25.1855 85.7559 25.3418C85.821 25.4915 85.9316 25.599 86.0879 25.6641C86.2507 25.7227 86.4655 25.752 86.7324 25.752C86.9212 25.752 87.0775 25.7487 87.2012 25.7422C87.3249 25.7292 87.4421 25.7129 87.5527 25.6934V28.0469C87.2728 28.138 86.9798 28.2064 86.6738 28.252C86.3678 28.304 86.0423 28.3301 85.6973 28.3301C84.9941 28.3301 84.3919 28.2194 83.8906 27.998C83.3958 27.7767 83.0182 27.4284 82.7578 26.9531C82.4974 26.4779 82.3672 25.8594 82.3672 25.0977V14.9414Z" fill="#17191D"/>
</svg>
