<svg width="61" height="61" viewBox="0 0 61 61" fill="none" xmlns="http://www.w3.org/2000/svg">
<path fill-rule="evenodd" clip-rule="evenodd" d="M30.0585 60.9561C13.4872 60.9561 0.0585938 47.5217 0.0585938 30.9545C0.0585938 14.3872 13.4872 0.956055 30.0585 0.956055C46.6267 0.956055 60.0586 14.3872 60.0586 30.9545C60.0586 47.5217 46.6267 60.9561 30.0585 60.9561ZM2.8343 30.9547C2.8343 42.4709 10.0001 52.3096 20.1126 56.2716C19.8748 54.1219 19.6627 50.822 20.209 48.4699C20.7006 46.3492 23.3967 34.9584 23.3967 34.9584C23.3967 34.9584 22.5837 33.3293 22.5837 30.9227C22.5837 27.1407 24.772 24.3195 27.5033 24.3195C29.8201 24.3195 30.9416 26.0611 30.9416 28.1497C30.9416 30.4825 29.457 33.9687 28.689 37.2012C28.0496 39.91 30.0483 42.1141 32.7155 42.1141C37.5484 42.1141 41.2629 37.0181 41.2629 29.6631C41.2629 23.1531 36.5875 18.6033 29.9069 18.6033C22.1723 18.6033 17.6319 24.4063 17.6319 30.4021C17.6319 32.738 18.5283 35.2444 19.6531 36.6067C19.8748 36.8766 19.9069 37.1113 19.8427 37.3876C19.6369 38.2456 19.1776 40.0931 19.0875 40.4691C18.9686 40.967 18.6922 41.0731 18.1749 40.8354C14.7816 39.2544 12.6608 34.2868 12.6608 30.3025C12.6608 21.7265 18.8915 13.8477 30.6235 13.8477C40.0548 13.8477 47.3844 20.5697 47.3844 29.5505C47.3844 38.9203 41.475 46.4616 33.2778 46.4616C30.5207 46.4616 27.9307 45.0286 27.0438 43.3385C27.0438 43.3385 25.6814 48.5278 25.3503 49.8002C24.7367 52.1618 23.0785 55.1213 21.9731 56.927C24.5149 57.7174 27.2173 58.1416 30.0226 58.1416C45.0387 58.1416 57.211 45.97 57.211 30.9547C57.211 15.9362 45.0387 3.76792 30.0226 3.76792C15.0065 3.76792 2.8343 15.9362 2.8343 30.9547Z" fill="white"/>
</svg>
