<svg width="61" height="61" viewBox="0 0 61 61" fill="none" xmlns="http://www.w3.org/2000/svg">
<path fill-rule="evenodd" clip-rule="evenodd" d="M60.0586 30.9561C60.0586 47.5246 46.6271 60.9561 30.0586 60.9561C13.4901 60.9561 0.0585938 47.5246 0.0585938 30.9561C0.0585938 14.3876 13.4901 0.956055 30.0586 0.956055C46.6271 0.956055 60.0586 14.3876 60.0586 30.9561ZM20.148 28.2079C17.1427 29.5201 14.055 30.8683 11.2314 32.4236C9.75706 33.5031 11.7166 34.2667 13.555 34.9829C13.8472 35.0968 14.1363 35.2094 14.4082 35.3219C14.6345 35.3916 14.8645 35.4648 15.0976 35.5391C17.1422 36.1904 19.422 36.9168 21.407 35.8242C24.6677 33.9511 27.7448 31.7856 30.8197 29.6217C31.8271 28.9127 32.8342 28.2039 33.8475 27.5057C33.895 27.4753 33.9485 27.4406 34.0071 27.4027C34.8702 26.8431 36.8116 25.5847 36.0935 27.3187C34.3955 29.1757 32.5766 30.8194 30.748 32.4723C29.5155 33.5862 28.2785 34.7042 27.071 35.8942C26.0193 36.7487 24.9272 38.4671 26.1048 39.6637C28.8172 41.5624 31.572 43.4152 34.3251 45.2669C35.221 45.8694 36.1168 46.4719 37.0108 47.0759C38.5261 48.2857 40.8942 47.3071 41.2273 45.4167C41.3755 44.5471 41.5242 43.6776 41.673 42.8079C42.495 38.0021 43.3172 33.1944 44.0436 28.3729C44.1423 27.6166 44.2542 26.8603 44.3662 26.1037C44.6376 24.2698 44.9093 22.4337 44.9942 20.5899C44.7755 18.7499 42.5445 19.1546 41.303 19.5683C34.9215 21.9966 28.6037 24.6048 22.311 27.2591C21.5981 27.5748 20.8755 27.8903 20.148 28.2079Z" fill="white"/>
</svg>
